<svg width="105" height="32" viewBox="0 0 105 32" fill="none" xmlns="http://www.w3.org/2000/svg">
<path d="M7.98532 18.6768C8.90215 18.6768 9.43696 19.2119 9.43696 20.1288V20.2051C9.43696 21.0838 10.0866 21.7333 10.9653 21.7333C11.8439 21.7333 12.4932 21.0837 12.4932 20.2051V20.1288C12.4932 19.2119 13.0283 18.6768 13.9452 18.6768L14.0978 18.6768C15.0147 18.6768 15.5498 19.2119 15.5498 20.1288L15.5498 22.5331C15.5498 23.3434 14.893 24.0002 14.0827 24.0002L10.2303 24.0002C9.8215 24.0002 9.43697 23.7467 9.43696 23.3379L9.43696 23.2616C9.43696 22.3829 8.78737 21.7333 7.90867 21.7333L4.85244 21.7333C3.93555 21.7333 3.4771 22.3445 3.47708 23.185L3.47708 23.3379C3.47706 23.7504 3.07701 24.0002 2.66455 24.0002L0.67606 24.0002C0.351211 24.0002 0.114963 23.6628 0.114971 23.3379L0.114971 23.185C0.115001 22.2682 0.80273 21.5805 1.71956 21.5804L1.87249 21.5804C2.71299 21.5804 3.32414 21.122 3.32414 20.2051L3.32414 20.1288C3.32414 19.2119 3.85924 18.6768 4.77615 18.6768L7.98532 18.6768Z" fill="#FA19C2"/>
<path d="M97.1487 23.8565C94.3037 23.8565 92.2203 21.7284 92.2203 18.2337C92.2203 14.8958 94.2589 12.6109 97.2383 12.6109C98.6496 12.6109 99.6801 13.1261 100.487 14.1118H100.688V10.6395C100.688 10.2811 100.531 10.0347 100.195 9.98985L99.3889 9.85544V8.89217L102.951 8.17531V21.5939C102.951 21.9524 103.108 22.1988 103.444 22.2436L104.183 22.3332V23.3637L100.778 23.7893L100.755 22.2212H100.554C99.6577 23.2741 98.7392 23.8565 97.1487 23.8565ZM94.5277 18.2337C94.5277 20.6755 95.715 22.1316 97.5519 22.1316C98.9857 22.1316 100.688 21.1907 100.688 18.2785C100.688 15.7247 99.3441 14.3358 97.5519 14.3358C95.715 14.3358 94.5277 15.7919 94.5277 18.2337Z" fill="#09090B"/>
<path d="M79.5779 23.5877V22.5572L80.3619 22.4228C80.698 22.3556 80.8548 22.1316 80.8548 21.7731V15.187C80.8548 14.8286 80.698 14.6046 80.3619 14.5374L79.5779 14.403V13.4397L82.9157 12.7229L82.9829 14.3134H83.1397C83.991 13.1037 85.2455 12.6108 86.6792 12.6108C89.121 12.6108 90.5323 14.3582 90.5323 16.688V21.7731C90.5323 22.1316 90.6891 22.3556 91.0252 22.4228L91.7868 22.5572V23.5877H87.0153V22.5572L87.7545 22.4228C88.1129 22.3556 88.2697 22.1316 88.2697 21.7731V17.2256C88.2697 15.5455 87.4409 14.403 85.828 14.403C84.1926 14.403 83.1397 15.5679 83.1397 17.2704V21.7731C83.1397 22.1316 83.2966 22.3556 83.6326 22.4228L84.3718 22.5572V23.5877H79.5779Z" fill="#09090B"/>
<path d="M73.8709 23.8565C70.6898 23.8565 68.4272 21.5715 68.4272 18.2337C68.4272 14.9182 70.7346 12.6108 73.8933 12.6108C76.7607 12.6108 78.9112 14.6046 78.9112 17.6064C78.9112 17.9649 78.8888 18.3457 78.8664 18.7265H70.757C70.869 20.9443 72.1907 22.1988 74.0949 22.1988C75.6182 22.1988 76.7383 21.3475 77.0295 20.0034H78.7992C78.3512 22.378 76.5367 23.8565 73.8709 23.8565ZM70.8242 17.2032H76.7159C76.6039 15.4335 75.5062 14.3134 73.8933 14.3134C72.3027 14.3134 71.1603 15.3215 70.8242 17.2032Z" fill="#09090B"/>
<path d="M63.6333 23.8565C62.11 23.8565 60.7659 23.2517 60.0938 22.3332L60.0042 23.5877H58.6825V20.0034H60.161C60.5195 21.5267 62.11 22.3108 63.5213 22.3108C64.8654 22.3108 65.6046 21.7507 65.6046 20.8771C65.6046 20.1826 65.1566 19.7122 63.9917 19.4658L61.8412 19.0849C59.8474 18.7489 58.7945 17.6512 58.7945 15.9039C58.7945 13.8205 60.4746 12.6108 62.5356 12.6108C63.8573 12.6108 64.9998 13.1933 65.5374 14.0446L65.627 12.8797H66.9711V16.2399H65.4702C65.1118 14.9406 63.9469 14.179 62.7148 14.179C61.6619 14.179 60.8107 14.6718 60.8107 15.5903C60.8107 16.3295 61.2587 16.7552 62.3116 16.9568L64.4622 17.36C66.5007 17.7184 67.5984 18.8161 67.5984 20.5187C67.5984 22.5348 66.1423 23.8565 63.6333 23.8565Z" fill="#09090B"/>
<path d="M45.5946 23.5877V22.5572L46.3787 22.4228C46.7147 22.3556 46.8715 22.1316 46.8715 21.7731V15.187C46.8715 14.8286 46.7147 14.6046 46.3787 14.5374L45.5946 14.403V13.4397L48.9325 12.7229L48.9997 14.3134H49.1565C50.0078 13.1037 51.2623 12.6108 52.696 12.6108C55.1378 12.6108 56.5491 14.3582 56.5491 16.688V21.7731C56.5491 22.1316 56.7059 22.3556 57.0419 22.4228L57.8036 22.5572V23.5877H53.032V22.5572L53.7713 22.4228C54.1297 22.3556 54.2865 22.1316 54.2865 21.7731V17.2256C54.2865 15.5455 53.4576 14.403 51.8447 14.403C50.2094 14.403 49.1565 15.5679 49.1565 17.2704V21.7731C49.1565 22.1316 49.3133 22.3556 49.6494 22.4228L50.3886 22.5572V23.5877H45.5946Z" fill="#09090B"/>
<path d="M39.8876 23.8565C36.7066 23.8565 34.444 21.5715 34.444 18.2337C34.444 14.9182 36.7514 12.6108 39.91 12.6108C42.7774 12.6108 44.928 14.6046 44.928 17.6064C44.928 17.9649 44.9056 18.3457 44.8832 18.7265H36.7738C36.8858 20.9443 38.2075 22.1988 40.1116 22.1988C41.635 22.1988 42.755 21.3475 43.0463 20.0034H44.816C44.368 22.378 42.5534 23.8565 39.8876 23.8565ZM36.841 17.2032H42.7326C42.6206 15.4335 41.5229 14.3134 39.91 14.3134C38.3195 14.3134 37.177 15.3215 36.841 17.2032Z" fill="#09090B"/>
<path d="M25.9861 23.8565C21.6626 23.8565 18.5488 20.6755 18.5488 16.1055C18.5488 11.5356 21.7074 8.35453 25.9413 8.35453C27.9351 8.35453 29.7496 9.02658 30.8473 10.3931L30.9145 8.62335H32.505V13.5293H30.7577C30.0857 11.3564 28.2935 10.1243 26.0533 10.1243C23.1411 10.1243 20.9234 12.3644 20.9234 16.1055C20.9234 19.8466 23.1635 22.0868 26.1654 22.0868C28.5623 22.0868 30.6905 20.6531 30.6905 18.2113V17.4944H24.5524V15.9039H32.7739V23.5877H31.1833L30.9593 21.7732H30.8025C29.6376 23.0501 28.2487 23.8565 25.9861 23.8565Z" fill="#09090B"/>
<path d="M92.0767 18.2338C92.0767 16.5359 92.5954 15.0941 93.5048 14.075C94.4154 13.0545 95.7096 12.4674 97.2382 12.4673C98.6616 12.4673 99.7183 12.9795 100.545 13.9575V10.6395C100.545 10.4795 100.509 10.3612 100.452 10.2813C100.403 10.2146 100.331 10.1641 100.224 10.1405L100.176 10.1321L100.174 10.1319L100.172 10.1316L99.3653 9.99695L99.2452 9.97704V8.77466L103.094 8V21.5938L103.096 21.6519C103.104 21.7829 103.137 21.8821 103.188 21.952C103.243 22.0279 103.328 22.0828 103.461 22.1009L104.2 22.1907L104.327 22.2058V23.4904L100.636 23.9517L100.614 22.3702C100.174 22.8781 99.7201 23.2828 99.1771 23.5613C98.6129 23.8507 97.9624 24 97.1487 24C95.6887 24 94.4167 23.4532 93.511 22.4521C92.6062 21.4519 92.0767 20.0095 92.0767 18.2338ZM94.5277 18.2337C94.5277 15.7919 95.715 14.3358 97.5519 14.3358L97.7186 14.3398C99.4268 14.4236 100.688 15.8046 100.688 18.2785L100.687 18.4136C100.635 21.2198 98.9632 22.1315 97.5519 22.1316L97.552 21.9879C98.2388 21.9879 98.9837 21.7626 99.5565 21.195C100.128 20.6289 100.545 19.7059 100.545 18.2784C100.545 17.0257 100.215 16.0758 99.6822 15.4417C99.1512 14.8099 98.4084 14.4794 97.552 14.4794C96.6753 14.4794 95.9617 14.8251 95.4639 15.458C94.9632 16.0946 94.6713 17.0344 94.6713 18.2338L94.6747 18.4557C94.7086 19.5495 94.9945 20.4128 95.4639 21.0096C95.9617 21.6424 96.6753 21.9879 97.552 21.9879L97.5519 22.1316L97.3818 22.1273C95.6981 22.0425 94.6001 20.6907 94.5311 18.4596L94.5277 18.2337ZM99.3889 9.85544L100.195 9.98985C100.531 10.0347 100.688 10.2811 100.688 10.6395V14.1118H100.487L100.41 14.0209C99.6409 13.1243 98.6704 12.6425 97.3694 12.6123L97.2383 12.6109C94.2589 12.6109 92.2203 14.8958 92.2203 18.2337L92.222 18.3965C92.2847 21.7405 94.2832 23.7908 97.0161 23.855L97.1487 23.8565C98.7392 23.8565 99.6577 23.2741 100.554 22.2212H100.755L100.778 23.7893L104.183 23.3637V22.3332L103.444 22.2436C103.129 22.2016 102.971 21.9824 102.952 21.6597L102.951 21.5939V8.17531L99.3889 8.89217V9.85544Z" fill="#09090B"/>
<path d="M86.8717 22.4375L86.9895 22.4159L87.728 22.2815C87.8819 22.2527 87.9753 22.1941 88.0326 22.1197C88.0911 22.0437 88.1263 21.9325 88.1263 21.7731V17.2255C88.1262 16.4071 87.924 15.7378 87.5429 15.2757C87.165 14.8175 86.5977 14.5465 85.8281 14.5465C85.0462 14.5465 84.4136 14.8241 83.9759 15.2959C83.5371 15.7688 83.2834 16.4486 83.2834 17.2704V21.7731L83.2851 21.8308C83.2925 21.96 83.3254 22.0542 83.3754 22.1214C83.4308 22.1959 83.519 22.2532 83.6589 22.2815L84.5155 22.4375V23.7313H79.4342V22.4361L80.3359 22.2813C80.4757 22.2529 80.5638 22.1958 80.6192 22.1214C80.6763 22.0446 80.7112 21.9324 80.7112 21.7731V15.1871C80.7112 15.0277 80.6763 14.9155 80.6192 14.8387C80.5635 14.7639 80.4747 14.7065 80.3337 14.6783L79.4342 14.524V13.3236L83.052 12.5467L83.1173 14.1005C83.9984 12.9393 85.2619 12.4673 86.6793 12.4673C87.9366 12.4674 88.94 12.9184 89.6279 13.6795C90.3142 14.4388 90.676 15.4946 90.676 16.6878V21.7731L90.6774 21.8308C90.6849 21.9601 90.7181 22.0542 90.768 22.1214C90.8232 22.1956 90.9108 22.2528 91.0499 22.2813L91.8116 22.4159L91.9306 22.4366V23.7313H86.8717V22.4375ZM79.5779 14.403L80.3619 14.5374C80.698 14.6046 80.8548 14.8286 80.8548 15.187V21.7731L80.8528 21.8387C80.8344 22.1589 80.677 22.3598 80.3619 22.4228L79.5779 22.5572V23.5877H84.3718V22.5572L83.6326 22.4228C83.3175 22.3598 83.1599 22.1589 83.1415 21.8387L83.1397 21.7731V17.2704C83.1397 15.5679 84.1926 14.403 85.828 14.403L85.9767 14.4062C87.4918 14.4748 88.2697 15.598 88.2697 17.2256V21.7731L88.2679 21.8387C88.2494 22.1589 88.0905 22.3598 87.7545 22.4228L87.0153 22.5572V23.5877H91.7868V22.5572L91.0252 22.4228C90.7101 22.3598 90.5525 22.1589 90.5341 21.8387L90.5323 21.7731V16.688C90.5323 14.3946 89.1647 12.6655 86.7929 12.6121L86.6792 12.6108C85.2455 12.6108 83.991 13.1037 83.1397 14.3134H82.9829L82.9157 12.7229L79.5779 13.4397V14.403Z" fill="#09090B"/>
<path d="M78.9112 17.6064C78.9112 14.6515 76.8273 12.6734 74.027 12.6123L73.8933 12.6108C70.7346 12.6108 68.4272 14.9182 68.4272 18.2337L68.4288 18.3895C68.4981 21.6424 70.7396 23.8565 73.8709 23.8565C76.5367 23.8565 78.3512 22.378 78.7992 20.0034H77.0295C76.7383 21.3475 75.6182 22.1988 74.0949 22.1988L74.0949 22.0552C75.5592 22.0552 76.6141 21.243 76.8892 19.973L76.9136 19.8597H78.9726L78.9403 20.0299C78.7105 21.2476 78.1285 22.243 77.2558 22.9331C76.3835 23.6228 75.2305 24 73.8708 24C72.2448 24 70.8458 23.4155 69.8533 22.3971C68.8611 21.3789 68.2836 19.9358 68.2836 18.2338C68.2836 14.8418 70.6526 12.4673 73.8932 12.4673C75.3607 12.4673 76.6524 12.9778 77.5778 13.8801C78.5037 14.7828 79.0547 16.0699 79.0547 17.6064C79.0547 17.9698 79.0322 18.3551 79.0099 18.735L79.0017 18.8702H70.9107C70.9889 19.8789 71.3297 20.6595 71.8562 21.1936C72.4078 21.7532 73.1755 22.0552 74.0949 22.0552L74.0949 22.1988L73.9182 22.1952C72.1094 22.1195 70.8655 20.875 70.757 18.7265H78.8664L78.8974 18.1581C78.9058 17.9705 78.9112 17.7856 78.9112 17.6064ZM74.043 14.3168C75.5738 14.3841 76.6073 15.4889 76.7159 17.2032H70.8242C71.1603 15.3215 72.3027 14.3134 73.8933 14.3134L74.043 14.3168ZM73.8932 14.457C73.1299 14.457 72.4827 14.6982 71.9858 15.1582C71.5186 15.5906 71.1747 16.2253 70.9985 17.0595H76.5602C76.4826 16.2729 76.1986 15.6386 75.7648 15.1949C75.3043 14.7239 74.6648 14.457 73.8932 14.457Z" fill="#09090B"/>
<path d="M58.5389 19.8597H60.2747L60.3008 19.9705C60.6382 21.4043 62.1474 22.1671 63.5212 22.1671L63.5213 22.3108C62.11 22.3108 60.5195 21.5267 60.161 20.0034H58.6825V23.5877H60.0042L60.0938 22.3332C60.7448 23.2229 62.0265 23.8183 63.4909 23.8547L63.6333 23.8565C66.0639 23.8565 67.5064 22.6161 67.5942 20.7056L67.5984 20.5187C67.5984 18.8694 66.5683 17.7876 64.6506 17.3958L64.4622 17.36L62.3116 16.9568C61.2917 16.7615 60.8394 16.356 60.8121 15.6588L60.8107 15.5903C60.8107 14.6718 61.6619 14.179 62.7148 14.179L62.8301 14.1813C63.9805 14.2257 65.0516 14.9333 65.4343 16.1196L65.4702 16.2399H66.9711V12.8797H65.627L65.5374 14.0446C65.0166 13.2199 63.9281 12.6476 62.659 12.6126L62.5356 12.6108C60.4746 12.6108 58.7945 13.8205 58.7945 15.9039L58.7975 16.0658C58.8611 17.7191 59.9097 18.7594 61.8412 19.0849L63.9917 19.4658C65.1566 19.7122 65.6046 20.1826 65.6046 20.8771C65.6046 21.7507 64.8654 22.3108 63.5213 22.3108L63.5212 22.1671C64.176 22.1671 64.664 22.0303 64.9841 21.8042C65.2984 21.5822 65.4609 21.2676 65.4609 20.877C65.4609 20.5651 65.3624 20.3144 65.1381 20.1096C64.9082 19.8997 64.5352 19.7278 63.9666 19.607L61.8173 19.2264C60.8004 19.055 60.0065 18.6868 59.4664 18.123C58.9242 17.5571 58.6508 16.8081 58.6508 15.9039C58.6508 14.82 59.0896 13.9561 59.8004 13.3657C60.5085 12.7775 61.4782 12.4673 62.5356 12.4673C63.7292 12.4673 64.7954 12.9291 65.4233 13.6523L65.4839 12.8687L65.494 12.736H67.1148V16.3835H65.3608L65.3319 16.2781C64.9923 15.0472 63.8889 14.3226 62.7148 14.3226C62.2084 14.3226 61.7635 14.4415 61.4496 14.6584C61.1406 14.8719 60.9543 15.1823 60.9543 15.5904L60.9554 15.6524C60.9672 15.9583 61.0676 16.1895 61.2634 16.3695C61.4785 16.5673 61.8234 16.7171 62.3387 16.8157L64.4871 17.2185C65.5252 17.401 66.3402 17.7745 66.8966 18.3339C67.4557 18.896 67.742 19.6342 67.742 20.5188L67.7408 20.6161C67.718 21.6181 67.3411 22.4589 66.6504 23.0526C65.9398 23.6633 64.9119 24 63.6334 24C62.2341 24 60.9663 23.5008 60.2116 22.6983L60.1379 23.7313H58.5389V19.8597Z" fill="#09090B"/>
<path d="M52.8885 22.4375L53.0063 22.4159L53.7448 22.2815L53.7998 22.2695C53.9215 22.2379 53.9993 22.1848 54.0494 22.1197C54.1079 22.0437 54.1428 21.9325 54.1428 21.7731V17.2255C54.1428 16.4071 53.9408 15.7378 53.5597 15.2757C53.1818 14.8175 52.6143 14.5465 51.8446 14.5465C51.0628 14.5465 50.4304 14.8241 49.9927 15.2959C49.5539 15.7688 49.3002 16.4486 49.3002 17.2704V21.7731L49.3016 21.8308C49.3091 21.9601 49.3422 22.0542 49.3922 22.1214C49.4476 22.1959 49.5356 22.2532 49.6755 22.2815L50.4142 22.4159L50.5323 22.4375V23.7313H45.451V22.4361L46.3527 22.2813C46.4925 22.2529 46.5807 22.1958 46.636 22.1214C46.6931 22.0446 46.728 21.9324 46.728 21.7731V15.1871C46.728 15.0277 46.6931 14.9155 46.636 14.8387C46.5804 14.7639 46.4915 14.7065 46.3505 14.6783L45.451 14.524V13.3236L49.0688 12.5467L49.1342 14.1005C50.0152 12.9394 51.2785 12.4674 52.6959 12.4673C53.9532 12.4673 54.9568 12.9184 55.6447 13.6795C56.331 14.4388 56.6925 15.4946 56.6926 16.6878V21.7731C56.6926 21.9325 56.7277 22.0446 56.7848 22.1214C56.84 22.1956 56.9276 22.2528 57.0667 22.2813L57.8285 22.4159L57.9471 22.4366V23.7313H52.8885V22.4375ZM45.5946 14.403L46.3787 14.5374C46.7147 14.6046 46.8715 14.8286 46.8715 15.187V21.7731L46.8696 21.8387C46.8512 22.1589 46.6937 22.3598 46.3787 22.4228L45.5946 22.5572V23.5877H50.3886V22.5572L49.6494 22.4228C49.3343 22.3598 49.1767 22.1589 49.1583 21.8387L49.1565 21.7731V17.2704C49.1565 15.5679 50.2094 14.403 51.8447 14.403C53.4576 14.403 54.2865 15.5455 54.2865 17.2256V21.7731C54.2865 22.1316 54.1297 22.3556 53.7713 22.4228L53.032 22.5572V23.5877H57.8036V22.5572L57.0419 22.4228C56.7059 22.3556 56.5491 22.1316 56.5491 21.7731V16.688C56.549 14.3946 55.1815 12.6655 52.8097 12.6121L52.696 12.6108C51.2623 12.6108 50.0078 13.1037 49.1565 14.3134H48.9997L48.9325 12.7229L45.5946 13.4397V14.403Z" fill="#09090B"/>
<path d="M44.928 17.6064C44.928 14.6515 42.8441 12.6734 40.0438 12.6123L39.91 12.6108C36.7514 12.6108 34.444 14.9182 34.444 18.2337L34.4457 18.3895C34.515 21.6424 36.7563 23.8565 39.8876 23.8565C42.5534 23.8565 44.368 22.378 44.816 20.0034H43.0463C42.755 21.3475 41.635 22.1988 40.1116 22.1988L40.1117 22.0552C41.576 22.0552 42.6309 21.2429 42.906 19.973L42.9304 19.8597H44.9894L44.9571 20.0299C44.7274 21.2476 44.1453 22.243 43.2726 22.9331C42.4004 23.6228 41.2473 24 39.8876 24C38.2616 24 36.8626 23.4155 35.8702 22.3971C34.8779 21.3789 34.3004 19.9358 34.3004 18.2338C34.3004 14.8418 36.6694 12.4673 39.9101 12.4673C41.3775 12.4673 42.6692 12.9778 43.5946 13.8801C44.5205 14.7828 45.0715 16.0699 45.0715 17.6064C45.0715 17.9698 45.049 18.3551 45.0267 18.735L45.0185 18.8702H36.9275C37.0058 19.8789 37.3465 20.6595 37.873 21.1936C38.4246 21.7532 39.1923 22.0552 40.1117 22.0552L40.1116 22.1988L39.9347 22.1952C38.126 22.1194 36.8823 20.8749 36.7738 18.7265H44.8832L44.9139 18.1581C44.9223 17.9705 44.928 17.7856 44.928 17.6064ZM40.0598 14.3168C41.5906 14.3842 42.6241 15.4889 42.7326 17.2032H36.841C37.177 15.3215 38.3195 14.3134 39.91 14.3134L40.0598 14.3168ZM39.9101 14.457C39.1467 14.457 38.4995 14.6982 38.0026 15.1582C37.5354 15.5906 37.1915 16.2253 37.0153 17.0595H42.577C42.4994 16.2729 42.2154 15.6386 41.7816 15.1949C41.3211 14.7239 40.6816 14.457 39.9101 14.457Z" fill="#09090B"/>
<path d="M20.9234 16.1055C20.9234 12.3644 23.1411 10.1243 26.0533 10.1243L26.2621 10.1279C28.3354 10.1999 29.9965 11.3466 30.6916 13.3284L30.7577 13.5293H32.505V8.62335H30.9145L30.8473 10.3931C29.7496 9.02658 27.9351 8.35453 25.9413 8.35453C21.7074 8.35453 18.5488 11.5356 18.5488 16.1055L18.5511 16.3187C18.6465 20.7741 21.7302 23.8565 25.9861 23.8565C28.2487 23.8565 29.6376 23.0501 30.8025 21.7732H30.9593L31.1833 23.5877H32.7739V15.9039H24.5524V17.4944H30.6905V18.2113L30.689 18.325C30.624 20.6975 28.5249 22.0868 26.1654 22.0868L26.1653 21.9433C27.3367 21.9433 28.435 21.5926 29.2373 20.9524C30.0367 20.3144 30.5468 19.386 30.5468 18.2114V17.6381H24.4087V15.7603H32.9174V23.7313H31.0564L31.0407 23.6054L30.8363 21.9475C29.6614 23.206 28.2469 24 25.9861 24C23.7879 24 21.8904 23.1907 20.5427 21.7944C19.1954 20.3984 18.4053 18.4237 18.4053 16.1056C18.4053 11.4612 21.6233 8.21096 25.9412 8.21091C27.8263 8.21091 29.5715 8.80341 30.7174 10.0253L30.7763 8.47988H32.6487V13.6728H30.6517L30.6206 13.5718C29.9682 11.4625 28.2343 10.2679 26.0534 10.2679C24.6359 10.2679 23.393 10.8121 22.5032 11.8077C21.6126 12.8042 21.0669 14.2633 21.0669 16.1056L21.0686 16.277C21.1018 18.0381 21.6464 19.4371 22.5248 20.4024C23.4309 21.3979 24.7017 21.9433 26.1653 21.9433L26.1654 22.0868L26.0251 22.0852C23.1405 22.0175 20.9925 19.8583 20.925 16.2798L20.9234 16.1055Z" fill="#09090B"/>
</svg>
